<svg data-v-0dd9719b="" version="1.0" xmlns="http://www.w3.org/2000/svg" xmlns:xlink="http://www.w3.org/1999/xlink" width="100%" height="100%" viewBox="0 0 340.000000 250.000000" preserveAspectRatio="xMidYMid meet" color-interpolation-filters="sRGB" style="margin: auto;"> <rect data-v-0dd9719b="" x="0" y="0" width="100%" height="100%" fill="#fff" fill-opacity="1" class="background"></rect> <rect data-v-0dd9719b="" x="0" y="0" width="100%" height="100%" fill="url(#watermark)" fill-opacity="1" class="watermarklayer"></rect> <g data-v-0dd9719b="" fill="#333" class="icon-text-wrapper icon-svg-group iconsvg" transform="translate(48.524993896484375,97.14593315124512)"><g class="iconsvg-imagesvg" transform="translate(0,1.87396240234375)"><g><rect fill="#333" fill-opacity="0" stroke-width="2" x="0" y="0" width="60" height="51.96019848795822" class="image-rect"></rect> <svg x="0" y="0" width="60" height="51.96019848795822" filtersec="colorsb6789820904" class="image-svg-svg primary" style="overflow: visible;"><svg xmlns="http://www.w3.org/2000/svg" viewBox="0 0 54.47999572753906 47.18000030517578"><g fill-rule="evenodd"><path d="M13.49 0l6.74 11.68h27.51L54.48 0z" fill="#fc0"></path><path d="M22.48 15.57l6.74 11.68h9.53L42 21.66l3.51-6.09z" fill="#f06"></path><path d="M0 0l6.74 11.68h13.49L13.49 0z" fill="#f63"></path><path d="M9 15.57l6.75 11.68h13.47l-6.74-11.68z" fill="#c39"></path><path d="M20.23 11.68H6.74L9 15.57h13.48zM29.22 27.25H15.74l11.5 19.93L34 35.5z" fill="#039"></path></g></svg></svg> <!----></g></g> <g transform="translate(67,0)"><g data-gra="path-name" fill-rule="" class="tp-name iconsvg-namesvg" transform="translate(0,0)"><g transform="scale(1)"><g><path d="M20.21-36.56L20.21-36.56Q24.26-35.68 24.96-35.16L24.96-35.16Q24.96-35.16 24.43-34.63L24.43-34.63Q23.91-34.1 23.73-33.93L23.73-33.93Q31.11-23.91 43.24-21.45L43.24-21.45Q41.31-20.04 40.08-17.23L40.08-17.23Q27.95-21.97 21.8-31.99L21.8-31.99Q14.77-22.15 5.1-16L5.1-16Q4.22-17.4 2.29-18.98L2.29-18.98Q1.93-19.16 1.76-19.34L1.76-19.34Q13.71-23.73 20.21-36.56ZM31.11-1.93L31.11-10.02 12.48-10.02 12.48-1.93 31.11-1.93ZM32.17-20.92L32.17-20.92 32.17-17.4Q29.53-17.58 24.61-17.75L24.61-17.75 19.16-17.75Q14.94-17.75 11.95-17.4L11.95-17.4 11.95-20.92Q14.41-20.74 19.16-20.57L19.16-20.57 24.61-20.57Q30.06-20.74 32.17-20.92ZM35.33-13.54L35.33-13.54Q35.16-12.3 35.16-9.14L35.16-9.14 35.16-0.18Q35.16 2.11 35.51 4.22L35.51 4.22 30.76 4.22Q31.29 2.29 31.11 0.7L31.11 0.7 12.48 0.7Q12.48 2.99 12.66 4.57L12.66 4.57 8.44 4.57Q8.79 2.99 8.79 0.53L8.79 0.53 8.79-9.49Q8.79-10.37 8.44-13.01L8.44-13.01Q8.79-11.07 8.44-13.54L8.44-13.54Q10.37-13.18 12.48-13.18L12.48-13.18 30.94-13.18Q32.17-13.18 35.33-13.54ZM54.84-34.8L54.84-34.8 57.83-34.8Q59.59-34.8 61.52-34.98L61.52-34.98Q62.23-34.98 62.4-34.98L62.4-34.98Q62.05-32.7 62.05-29.71L62.05-29.71 62.05-2.99Q62.05 0 61 0.88L61 0.88Q60.47 1.58 55.55 2.46L55.55 2.46Q55.02 0.18 53.79-1.05L53.79-1.05Q53.44-1.41 53.61-1.58L53.61-1.58Q59.41-0.88 58.71-3.69L58.71-3.69 58.71-12.13 53.61-12.13Q53.09-3.16 49.57 3.34L49.57 3.34Q48.16 1.41 46.41 1.05L46.41 1.05Q50.27-3.52 50.1-19.16L50.1-19.16 50.1-29.88Q50.1-32.34 49.92-34.45L49.92-34.45Q49.92-34.98 49.92-34.98L49.92-34.98Q50.1-34.98 54.84-34.8ZM85.25-34.45L85.25-34.45Q84.9-33.75 84.9-30.06L84.9-30.06 84.9-17.75Q84.9-16.88 85.08-14.77L85.08-14.77Q85.25-12.3 85.25-11.25L85.25-11.25 81.39-11.25Q81.56-13.01 81.56-15.12L81.56-15.12 69.43-15.12 69.43-6.5Q68.55 0 73.65-1.23L73.65-1.23 79.1-1.23Q83.85-0.7 84.02-5.98L84.02-5.98Q85.61-3.87 87.89-3.52L87.89-3.52Q86.66 2.64 81.74 1.93L81.74 1.93 72.25 1.93Q64.86 3.16 65.92-3.87L65.92-3.87 65.92-30.59Q65.92-32.17 65.74-33.93L65.74-33.93Q65.74-34.28 65.74-34.45L65.74-34.45Q67.5-34.1 69.96-34.1L69.96-34.1 80.16-34.1Q82.97-34.1 85.25-34.45ZM58.71-24.96L58.71-31.64 53.61-31.64 53.61-24.96 58.71-24.96ZM73.65-31.11L69.43-31.11 69.43-18.11 73.65-18.11 73.65-31.11ZM81.56-31.11L76.82-31.11 76.82-18.11 81.56-18.11 81.56-31.11ZM58.71-14.94L58.71-21.97 53.61-21.97 53.61-14.94 58.71-14.94ZM125.68-36.39L125.68-36.39Q129.55-36.39 130.08-35.68L130.08-35.68Q130.08-35.51 129.9-35.16L129.9-35.16Q129.2-33.93 129.2-32.7L129.2-32.7 129.2-26.02Q131.31-26.02 133.07-26.19L133.07-26.19 133.07-22.5Q131.31-22.68 129.2-22.68L129.2-22.68 129.2 0.7Q130.25 4.39 122.7 4.39L122.7 4.39Q122.87 2.46 121.29 0L121.29 0Q126.91 1.23 126.04-0.7L126.04-0.7 126.04-22.68Q119.88-22.68 119-22.5L119-22.5 119-26.37Q119.36-26.37 120.41-26.19L120.41-26.19Q123.75-26.02 126.04-26.02L126.04-26.02 126.04-32.52Q125.86-34.63 125.68-36.39ZM108.63-36.21L108.63-36.21Q113.55-35.86 113.38-35.51L113.38-35.51Q113.38-35.33 113.03-34.98L113.03-34.98Q111.97-33.4 111.27-30.94L111.27-30.94Q115.49-30.94 117.95-30.94L117.95-30.94Q117.95-30.41 117.95-28.83L117.95-28.83Q117.77-26.54 117.77-25.31L117.77-25.31 117.77 1.41Q118.3 4.22 111.8 4.22L111.8 4.22Q111.8 2.29 110.39 0.35L110.39 0.35Q114.61 1.23 114.61 0L114.61 0 114.61-9.14Q111.27-2.99 104.94 1.58L104.94 1.58Q103.89 0.53 101.25-0.35L101.25-0.35Q108.11-3.87 111.27-9.49L111.27-9.49Q104.94-9.49 102.66-9.14L102.66-9.14 102.66-12.48 104.94-12.3 104.94-25.14Q104.94-28.48 104.77-30.94L104.77-30.94Q107.58-30.94 108.28-30.94L108.28-30.94Q108.63-32.52 108.63-36.21ZM94.57-33.22L98.44-34.63Q99.32-33.22 100.9-29.36L100.9-29.36Q101.43-27.95 101.78-27.25L101.78-27.25 97.56-26.02Q96.86-29.18 94.57-33.22L94.57-33.22ZM114.61-28.3L108.11-28.3 108.11-24.61 114.61-24.61 114.61-28.3ZM114.61-18.46L114.61-21.97 108.11-21.97 108.11-18.46 114.61-18.46ZM119.53-18.11L122.52-18.46Q124.28-14.41 124.45-10.2L124.45-10.2 120.76-9.67Q120.76-15.82 119.53-18.11L119.53-18.11ZM114.61-15.82L108.11-15.82 108.11-12.3 114.61-12.3 114.61-15.82ZM91.76-19.86L91.76-23.38Q91.76-23.38 97.21-23.2L97.21-23.2Q100.55-23.38 100.55-23.38L100.55-23.38Q100.55-23.03 100.37-22.32L100.37-22.32Q99.84-20.21 99.84-18.81L99.84-18.81 99.84-4.57 102.3-8.26Q102.83-6.68 103.54-5.63L103.54-5.63Q103.71-5.45 103.89-5.27L103.89-5.27Q100.37-1.23 97.91 1.76L97.91 1.76Q97.21 0.18 95.8-1.05L95.8-1.05Q96.86-2.29 96.86-4.92L96.86-4.92 96.86-20.04Q93.16-20.04 91.76-19.86L91.76-19.86ZM160.66-36.21L160.66-36.21Q165.06-36.21 165.41-35.68L165.41-35.68Q165.41-35.51 165.06-34.8L165.06-34.8Q164.53-33.75 164.53-33.05L164.53-33.05Q164.53-29.18 164.36-26.19L164.36-26.19 169.98-26.19Q173.14-26.19 175.61-26.72L175.61-26.72Q175.78-26.72 175.78-26.72L175.78-26.72 175.78-22.85Q175.61-22.85 175.25-22.85L175.25-22.85Q173.14-23.2 169.98-23.2L169.98-23.2 164.36-23.2Q163.83-10.37 152.58-3.87L152.58-3.87Q150.82-6.15 148.54-7.03L148.54-7.03Q160.14-10.72 160.84-23.2L160.84-23.2 156.09-23.2Q153.11-23.2 150.47-22.85L150.47-22.85Q150.12-22.85 150.12-22.85L150.12-22.85 150.12-26.54Q150.29-26.54 151-26.54L151-26.54Q153.63-26.19 156.09-26.19L156.09-26.19 160.84-26.19 160.84-33.93Q160.84-35.68 160.66-36.21ZM140.1-32.52L143.61-34.45Q143.96-33.75 144.84-32.52L144.84-32.52Q147.3-29 148.36-26.72L148.36-26.72 144.84-24.61Q142.91-29 140.1-32.52L140.1-32.52ZM146.95-16.17L146.95-16.17 146.95-4.22Q152.4-0.88 158.2-0.35L158.2-0.35Q164 0.18 177.71-1.05L177.71-1.05 175.96 3.34Q175.25 3.34 173.32 3.34L173.32 3.34Q157.85 3.52 152.93 1.76L152.93 1.76Q151.52 1.23 148.54 0L148.54 0Q146.07-1.23 145.55-1.23L145.55-1.23Q144.14-1.41 141.15 2.81L141.15 2.81Q140.63 3.52 140.63 3.52L140.63 3.52 137.46 0.53Q138.87-0.53 143.44-4.04L143.44-4.04 143.44-17.05 142.21-17.05Q139.92-17.05 137.99-16.7L137.99-16.7Q137.46-16.52 137.29-16.52L137.29-16.52 137.29-20.74Q137.46-20.74 137.81-20.74L137.81-20.74Q140.1-20.39 142.38-20.39L142.38-20.39 142.91-20.39Q146.6-20.39 147.3-20.57L147.3-20.57Q146.95-19.69 146.95-16.17ZM163.83-14.94L166.82-17.05Q169.45-15.12 175.25-7.21L175.25-7.21 171.74-4.39Q168.75-10.02 163.83-14.94L163.83-14.94Z" transform="translate(-1.7599999904632568, 36.560001373291016)"></path></g> <!----> <!----> <!----> <!----> <!----> <!----> <!----></g></g> <g data-gra="path-slogan" fill-rule="" class="tp-slogan iconsvg-slogansvg" fill="#333" transform="translate(51.32000732421875,47.130001068115234)"><!----> <!----> <g transform="scale(1, 1)"><g transform="scale(1)"><path d="M2.06-5.06L6.56-5.06L6.56-8.58L7.73-8.58L7.73 0L6.56 0L6.56-3.98L2.06-3.98L2.06 0L0.89 0L0.89-8.58L2.06-8.58L2.06-5.06ZM10.83-1.03L15.98-1.03L15.98 0L9.66 0L9.66-8.58L15.89-8.58L15.89-7.59L10.83-7.59L10.83-4.92L15.52-4.92L15.52-3.89L10.83-3.89L10.83-1.03ZM23.02-3.89L18.80-3.89L18.80 0L17.63 0L17.63-8.58L23.58-8.58L23.58-7.59L18.80-7.59L18.80-4.92L23.02-4.92L23.02-3.89ZM26.06-1.03L31.22-1.03L31.22 0L24.89 0L24.89-8.58L31.13-8.58L31.13-7.59L26.06-7.59L26.06-4.92L30.75-4.92L30.75-3.89L26.06-3.89L26.06-1.03ZM32.91-8.58L34.08-8.58L34.08 0L32.91 0L32.91-8.58ZM46.13-8.58L43.22-4.41L46.27 0L44.81 0L42.47-3.52L40.13 0L38.72 0L41.81-4.41L38.91-8.58L40.36-8.58L42.52-5.30L44.72-8.58L46.13-8.58ZM47.53-8.58L48.70-8.58L48.70 0L47.53 0L47.53-8.58ZM51.98-1.03L57.14-1.03L57.14 0L50.81 0L50.81-8.58L57.05-8.58L57.05-7.59L51.98-7.59L51.98-4.92L56.67-4.92L56.67-3.89L51.98-3.89L51.98-1.03ZM62.16 0L58.69 0L58.69-8.58L62.20-8.58Q65.67-8.39 65.81-4.41L65.81-4.41Q65.63-0.09 62.16 0L62.16 0ZM62.02-7.64L59.86-7.64L59.86-0.98L62.11-0.98Q64.55-1.13 64.64-4.31L64.64-4.31Q64.59-7.55 62.02-7.64L62.02-7.64ZM72.94 0L72.09-2.48L68.63-2.48L67.73 0L66.56 0L69.80-8.58L71.11-8.58L74.20 0L72.94 0ZM70.36-7.31L69-3.52L71.67-3.52L70.41-7.31L70.36-7.31Z" transform="translate(-0.890625, 8.578125)"></path></g></g></g></g></g><defs v-gra="od"></defs></svg>